<?xml version="1.0" encoding="utf-8"?>
<!-- Generator: Adobe Illustrator 23.0.2, SVG Export Plug-In . SVG Version: 6.00 Build 0)  -->
<svg version="1.1" xmlns="http://www.w3.org/2000/svg" xmlns:xlink="http://www.w3.org/1999/xlink" x="0px" y="0px"
	 viewBox="0 0 96.1 97.5" style="enable-background:new 0 0 96.1 97.5;" xml:space="preserve">
<style type="text/css">
	.st0{fill:#2B2628;stroke:#000000;stroke-miterlimit:10;}
	.st1{fill:#151515;}
	.st2{fill:#010101;}
	.st3{fill:#080808;}
	.st4{fill:#202020;}
	.st5{fill:#FFFFFF;}
	.st6{fill:#F8B02B;}
	.st7{opacity:0.3;}
	.st8{fill:#F4A421;}
	.st9{fill:#F8B850;}
	.st10{fill:#EF9C21;}
</style>
<g id="Layer_1">
</g>
<g id="Layer_2">
</g>
<g id="Layer_3">
	<path class="st0" d="M91.4,76.7c0,7.7-6.2,13.9-13.8,13.9H20.1c-7.6,0-13.8-6.2-13.8-13.9V18.8c0-7.7,6.2-13.9,13.8-13.9h57.5
		c7.6,0,13.8,6.2,13.8,13.9V76.7z"/>
	<g>
		<polygon class="st1" points="83.8,6.7 84.4,11.2 87.6,9.3 85.7,7.4 		"/>
		<polygon class="st2" points="91.4,15.2 84.4,11.2 87.6,9.3 89.6,11.2 		"/>
		<polygon class="st3" points="84.4,11.2 91.4,15.2 84.4,19.2 		"/>
		<polygon class="st2" points="91.4,23.2 84.4,19.2 91.4,15.2 		"/>
		<polygon class="st1" points="84.4,19.2 91.4,23.2 84.4,27.2 		"/>
		<polygon class="st4" points="91.4,31.2 84.4,27.2 91.4,23.2 		"/>
		<polygon class="st1" points="84.4,27.2 91.4,31.2 84.4,35.2 		"/>
		<polygon class="st1" points="91.4,39.2 84.4,35.2 91.4,31.2 		"/>
		<polygon class="st1" points="84.4,35.2 91.4,39.2 84.4,43.2 		"/>
		<polygon class="st4" points="91.4,47.2 84.4,43.2 91.4,39.2 		"/>
		<polygon class="st1" points="84.4,43.2 91.4,47.2 84.4,51.2 		"/>
		<polygon class="st2" points="91.4,55.2 84.4,51.2 91.4,47.2 		"/>
		<polygon class="st1" points="84.4,51.2 91.4,55.2 84.4,59.2 		"/>
		<polygon class="st3" points="91.4,63.2 84.4,59.2 91.4,55.2 		"/>
		<polygon class="st1" points="84.4,59.2 91.4,63.2 84.4,67.3 		"/>
		<polygon class="st3" points="91.4,71.3 84.4,67.3 91.4,63.2 		"/>
		<polygon class="st1" points="84.4,67.3 91.4,71.3 84.4,75.3 		"/>
		<polygon class="st1" points="91.4,79.3 84.4,75.3 91.4,71.3 		"/>
		<polygon class="st2" points="84.4,75.3 91.4,79.3 84.4,83.3 		"/>
		<path class="st4" d="M88.4,85.6l-4-2.3l7.1-4c0,0-0.9,2.8-1.3,3.7C89.8,83.7,88.4,85.6,88.4,85.6z"/>
		<polygon class="st3" points="84.4,88.5 86.4,87.5 88.4,85.6 84.4,83.3 84.4,88.5 		"/>
		<path class="st1" d="M79.2,5.5l-5.1-0.1l10.3,5.8l-0.6-4.5c0,0-1.1-0.5-1.8-0.9C81.3,5.5,79.2,5.5,79.2,5.5z"/>
		<polygon class="st4" points="77.3,7.2 84.4,11.2 77.3,15.2 		"/>
		<polygon class="st4" points="84.4,19.2 77.3,15.2 84.4,11.2 		"/>
		<polygon class="st3" points="77.3,15.2 84.4,19.2 77.3,23.2 		"/>
		<polygon class="st1" points="84.4,27.2 77.3,23.2 84.4,19.2 		"/>
		<polygon class="st3" points="77.3,23.2 84.4,27.2 77.3,31.2 		"/>
		<polygon class="st3" points="84.4,35.2 77.3,31.2 84.4,27.2 		"/>
		<polygon class="st3" points="77.3,31.2 84.4,35.2 77.3,39.2 		"/>
		<polygon class="st2" points="84.4,43.2 77.3,39.2 84.4,35.2 		"/>
		<polygon class="st2" points="77.3,39.2 84.4,43.2 77.3,47.2 		"/>
		<polygon class="st1" points="84.4,51.2 77.3,47.2 84.4,43.2 		"/>
		<polygon class="st2" points="77.3,47.2 84.4,51.2 77.3,55.2 		"/>
		<polygon class="st1" points="84.4,59.2 77.3,55.2 84.4,51.2 		"/>
		<polygon class="st2" points="77.3,55.2 84.4,59.2 77.3,63.2 		"/>
		<polygon class="st1" points="84.4,67.3 77.3,63.2 84.4,59.2 		"/>
		<polygon class="st1" points="77.3,63.2 84.4,67.3 77.3,71.3 		"/>
		<polygon class="st1" points="84.4,75.3 77.3,71.3 84.4,67.3 		"/>
		<polygon class="st1" points="77.3,71.3 84.4,75.3 77.3,79.3 		"/>
		<polygon class="st1" points="84.4,83.3 77.3,79.3 84.4,75.3 		"/>
		<polygon class="st3" points="77.3,79.3 84.4,83.3 77.3,87.3 		"/>
		<polygon class="st1" points="84.4,88.5 84.4,83.3 77.3,87.3 84.4,88.5 		"/>
		<polygon class="st2" points="84.4,88.5 77.3,87.3 77.3,90.1 80.8,89.8 		"/>
		<polygon class="st2" points="70.2,4.9 70.2,11.2 77.3,7.2 73.3,4.9 		"/>
		<polygon class="st2" points="77.3,15.2 70.2,11.2 77.3,7.2 		"/>
		<polygon class="st1" points="70.2,11.2 77.3,15.2 70.2,19.2 		"/>
		<polygon class="st2" points="77.3,23.2 70.2,19.2 77.3,15.2 		"/>
		<polygon class="st3" points="70.2,19.2 77.3,23.2 70.2,27.2 		"/>
		<polygon class="st3" points="77.3,31.2 70.2,27.2 77.3,23.2 		"/>
		<polygon class="st3" points="70.2,27.2 77.3,31.2 70.2,35.2 		"/>
		<polygon class="st2" points="77.3,39.2 70.2,35.2 77.3,31.2 		"/>
		<polygon class="st1" points="70.2,35.2 77.3,39.2 70.2,43.2 		"/>
		<polygon class="st4" points="77.3,47.2 70.2,43.2 77.3,39.2 		"/>
		<polygon class="st1" points="70.2,43.2 77.3,47.2 70.2,51.2 		"/>
		<polygon class="st1" points="77.3,55.2 70.2,51.2 77.3,47.2 		"/>
		<polygon class="st1" points="70.2,51.2 77.3,55.2 70.2,59.2 		"/>
		<polygon class="st1" points="77.3,63.2 70.2,59.2 77.3,55.2 		"/>
		<polygon class="st1" points="70.2,59.2 77.3,63.2 70.2,67.3 		"/>
		<polygon class="st1" points="77.3,71.3 70.2,67.3 77.3,63.2 		"/>
		<polygon class="st1" points="70.2,67.3 77.3,71.3 70.2,75.3 		"/>
		<polygon class="st4" points="77.3,79.3 70.2,75.3 77.3,71.3 		"/>
		<polygon class="st1" points="70.2,75.3 77.3,79.3 70.2,83.3 		"/>
		<polygon class="st1" points="77.3,87.3 70.2,83.3 77.3,79.3 		"/>
		<polygon class="st1" points="70.3,91.3 77.3,87.3 70.2,83.3 70.2,91.3 		"/>
		<polygon class="st2" points="77.3,91.3 77.3,87.3 70.3,91.3 		"/>
		<polygon class="st1" points="63.2,4.9 63.2,7.2 67.1,4.9 		"/>
		<polygon class="st3" points="67.1,4.9 63.2,7.2 70.2,11.2 70.2,4.9 		"/>
		<polygon class="st3" points="63.2,7.2 70.2,11.2 63.2,15.2 		"/>
		<polygon class="st1" points="70.2,19.2 63.2,15.2 70.2,11.2 		"/>
		<polygon class="st1" points="63.2,15.2 70.2,19.2 63.2,23.2 		"/>
		<polygon class="st1" points="70.2,27.2 63.2,23.2 70.2,19.2 		"/>
		<polygon class="st1" points="63.2,23.2 70.2,27.2 63.2,31.2 		"/>
		<polygon class="st1" points="70.2,35.2 63.2,31.2 70.2,27.2 		"/>
		<polygon class="st1" points="63.2,31.2 70.2,35.2 63.2,39.2 		"/>
		<polygon class="st1" points="70.2,43.2 63.2,39.2 70.2,35.2 		"/>
		<polygon class="st3" points="63.2,39.2 70.2,43.2 63.2,47.2 		"/>
		<polygon class="st2" points="70.2,51.2 63.2,47.2 70.2,43.2 		"/>
		<polygon class="st3" points="63.2,47.2 70.2,51.2 63.2,55.2 		"/>
		<polygon class="st1" points="70.2,59.2 63.2,55.2 70.2,51.2 		"/>
		<polygon class="st3" points="63.2,55.2 70.2,59.2 63.2,63.2 		"/>
		<polygon class="st3" points="70.2,67.3 63.2,63.2 70.2,59.2 		"/>
		<polygon class="st4" points="63.2,63.2 70.2,67.3 63.2,71.3 		"/>
		<polygon class="st3" points="70.2,75.3 63.2,71.3 70.2,67.3 		"/>
		<polygon class="st1" points="63.2,71.3 70.2,75.3 63.2,79.3 		"/>
		<polygon class="st2" points="70.2,83.3 63.2,79.3 70.2,75.3 		"/>
		<polygon class="st2" points="63.2,79.3 70.2,83.3 63.2,87.3 		"/>
		<polygon class="st1" points="70.2,91.3 70.2,83.3 63.2,87.3 70.2,91.3 		"/>
		<polygon class="st4" points="70.2,91.3 63.2,87.3 63.2,91.3 		"/>
		<polygon class="st1" points="59.2,4.9 63.2,7.2 63.2,4.9 		"/>
		<polygon class="st4" points="56.1,4.9 56.1,11.2 63.2,7.2 59.2,4.9 		"/>
		<polygon class="st1" points="63.2,15.2 56.1,11.2 63.2,7.2 		"/>
		<polygon class="st4" points="56.1,11.2 63.2,15.2 56.1,19.2 		"/>
		<polygon class="st4" points="63.2,23.2 56.1,19.2 63.2,15.2 		"/>
		<polygon class="st4" points="56.1,19.2 63.2,23.2 56.1,27.2 		"/>
		<polygon class="st3" points="63.2,31.2 56.1,27.2 63.2,23.2 		"/>
		<polygon class="st3" points="56.1,27.2 63.2,31.2 56.1,35.2 		"/>
		<polygon class="st1" points="63.2,39.2 56.1,35.2 63.2,31.2 		"/>
		<polygon class="st4" points="56.1,35.2 63.2,39.2 56.1,43.2 		"/>
		<polygon class="st2" points="63.2,47.2 56.1,43.2 63.2,39.2 		"/>
		<polygon class="st1" points="56.1,43.2 63.2,47.2 56.1,51.2 		"/>
		<polygon class="st1" points="63.2,55.2 56.1,51.2 63.2,47.2 		"/>
		<polygon class="st1" points="56.1,51.2 63.2,55.2 56.1,59.2 		"/>
		<polygon class="st3" points="63.2,63.2 56.1,59.2 63.2,55.2 		"/>
		<polygon class="st3" points="56.1,59.2 63.2,63.2 56.1,67.3 		"/>
		<polygon class="st3" points="63.2,71.3 56.1,67.3 63.2,63.2 		"/>
		<polygon class="st4" points="56.1,67.3 63.2,71.3 56.1,75.3 		"/>
		<polygon class="st1" points="63.2,79.3 56.1,75.3 63.2,71.3 		"/>
		<polygon class="st2" points="56.1,75.3 63.2,79.3 56.1,83.3 		"/>
		<polygon class="st1" points="63.2,87.3 56.1,83.3 63.2,79.3 		"/>
		<polygon class="st1" points="56.1,91.3 63.2,87.3 56.1,83.3 56.1,91.3 		"/>
		<polygon class="st1" points="63.2,91.3 63.2,87.3 56.1,91.3 		"/>
		<polygon class="st2" points="49,4.9 49,7.2 53,4.9 		"/>
		<polygon class="st2" points="53,4.9 49,7.2 56.1,11.2 56.1,4.9 		"/>
		<polygon class="st1" points="49,7.2 56.1,11.2 49,15.2 		"/>
		<polygon class="st2" points="56.1,19.2 49,15.2 56.1,11.2 		"/>
		<polygon class="st2" points="49,15.2 56.1,19.2 49,23.2 		"/>
		<polygon class="st3" points="56.1,27.2 49,23.2 56.1,19.2 		"/>
		<polygon class="st3" points="49,23.2 56.1,27.2 49,31.2 		"/>
		<polygon class="st2" points="56.1,35.2 49,31.2 56.1,27.2 		"/>
		<polygon class="st1" points="49,31.2 56.1,35.2 49,39.2 		"/>
		<polygon class="st4" points="56.1,43.2 49,39.2 56.1,35.2 		"/>
		<polygon class="st3" points="49,39.2 56.1,43.2 49,47.2 		"/>
		<polygon class="st2" points="56.1,51.2 49,47.2 56.1,43.2 		"/>
		<polygon class="st1" points="49,47.2 56.1,51.2 49,55.2 		"/>
		<polygon class="st3" points="56.1,59.2 49,55.2 56.1,51.2 		"/>
		<polygon class="st3" points="49,55.2 56.1,59.2 49,63.2 		"/>
		<polygon class="st1" points="56.1,67.3 49,63.2 56.1,59.2 		"/>
		<polygon class="st4" points="49,63.2 56.1,67.3 49,71.3 		"/>
		<polygon class="st3" points="56.1,75.3 49,71.3 56.1,67.3 		"/>
		<polygon class="st4" points="49,71.3 56.1,75.3 49,79.3 		"/>
		<polygon class="st2" points="56.1,83.3 49,79.3 56.1,75.3 		"/>
		<polygon class="st1" points="49,79.3 56.1,83.3 49,87.3 		"/>
		<polygon class="st2" points="56.1,91.3 56.1,83.3 49,87.3 56.1,91.3 		"/>
		<polygon class="st3" points="56.1,91.3 49,87.3 49,91.3 		"/>
		<polygon class="st1" points="45.1,4.9 49,7.2 49,4.9 		"/>
		<polygon class="st1" points="42,4.9 42,11.2 49,7.2 45.1,4.9 		"/>
		<polygon class="st2" points="49,15.2 42,11.2 49,7.2 		"/>
		<polygon class="st3" points="42,11.2 49,15.2 42,19.2 		"/>
		<polygon class="st1" points="49,23.2 42,19.2 49,15.2 		"/>
		<polygon class="st1" points="42,19.2 49,23.2 42,27.2 		"/>
		<polygon class="st1" points="49,31.2 42,27.2 49,23.2 		"/>
		<polygon class="st1" points="42,27.2 49,31.2 42,35.2 		"/>
		<polygon class="st1" points="49,39.2 42,35.2 49,31.2 		"/>
		<polygon class="st1" points="42,35.2 49,39.2 42,43.2 		"/>
		<polygon class="st3" points="49,47.2 42,43.2 49,39.2 		"/>
		<polygon class="st2" points="42,43.2 49,47.2 42,51.2 		"/>
		<polygon class="st1" points="49,55.2 42,51.2 49,47.2 		"/>
		<polygon class="st2" points="42,51.2 49,55.2 42,59.2 		"/>
		<polygon class="st2" points="49,63.2 42,59.2 49,55.2 		"/>
		<polygon class="st1" points="42,59.2 49,63.2 42,67.3 		"/>
		<polygon class="st1" points="49,71.3 42,67.3 49,63.2 		"/>
		<polygon class="st2" points="42,67.3 49,71.3 42,75.3 		"/>
		<polygon class="st1" points="49,79.3 42,75.3 49,71.3 		"/>
		<polygon class="st1" points="42,75.3 49,79.3 42,83.3 		"/>
		<polygon class="st4" points="49,87.3 42,83.3 49,79.3 		"/>
		<polygon class="st1" points="42,91.3 49,87.3 42,83.3 42,91.3 		"/>
		<polygon class="st3" points="49,91.3 49,87.3 42,91.3 		"/>
		<polygon class="st1" points="34.9,4.9 34.9,7.2 38.9,4.9 		"/>
		<polygon class="st3" points="38.9,4.9 34.9,7.2 42,11.2 42,4.9 		"/>
		<polygon class="st3" points="34.9,7.2 42,11.2 34.9,15.2 		"/>
		<polygon class="st4" points="42,19.2 34.9,15.2 42,11.2 		"/>
		<polygon class="st4" points="34.9,15.2 42,19.2 34.9,23.2 		"/>
		<polygon class="st1" points="42,27.2 34.9,23.2 42,19.2 		"/>
		<polygon class="st3" points="34.9,23.2 42,27.2 34.9,31.2 		"/>
		<polygon class="st4" points="42,35.2 34.9,31.2 42,27.2 		"/>
		<polygon class="st1" points="34.9,31.2 42,35.2 34.9,39.2 		"/>
		<polygon class="st1" points="42,43.2 34.9,39.2 42,35.2 		"/>
		<polygon class="st3" points="34.9,39.2 42,43.2 34.9,47.2 		"/>
		<polygon class="st3" points="42,51.2 34.9,47.2 42,43.2 		"/>
		<polygon class="st1" points="34.9,47.2 42,51.2 34.9,55.2 		"/>
		<polygon class="st2" points="42,59.2 34.9,55.2 42,51.2 		"/>
		<polygon class="st3" points="34.9,55.2 42,59.2 34.9,63.2 		"/>
		<polygon class="st1" points="42,67.3 34.9,63.2 42,59.2 		"/>
		<polygon class="st3" points="34.9,63.2 42,67.3 34.9,71.3 		"/>
		<polygon class="st1" points="42,75.3 34.9,71.3 42,67.3 		"/>
		<polygon class="st1" points="34.9,71.3 42,75.3 34.9,79.3 		"/>
		<polygon class="st1" points="42,83.3 34.9,79.3 42,75.3 		"/>
		<polygon class="st2" points="34.9,79.3 42,83.3 34.9,87.3 		"/>
		<polygon class="st1" points="42,91.3 42,83.3 34.9,87.3 41.9,91.3 		"/>
		<polygon class="st1" points="41.9,91.3 34.9,87.3 34.9,91.3 		"/>
		<polygon class="st1" points="30.9,4.9 34.9,7.2 34.9,4.9 		"/>
		<polygon class="st3" points="27.8,4.9 27.8,11.2 34.9,7.2 30.9,4.9 		"/>
		<polygon class="st1" points="34.9,15.2 27.8,11.2 34.9,7.2 		"/>
		<polygon class="st3" points="27.8,11.2 34.9,15.2 27.8,19.2 		"/>
		<polygon class="st1" points="34.9,23.2 27.8,19.2 34.9,15.2 		"/>
		<polygon class="st1" points="27.8,19.2 34.9,23.2 27.8,27.2 		"/>
		<polygon class="st1" points="34.9,31.2 27.8,27.2 34.9,23.2 		"/>
		<polygon class="st4" points="27.8,27.2 34.9,31.2 27.8,35.2 		"/>
		<polygon class="st4" points="34.9,39.2 27.8,35.2 34.9,31.2 		"/>
		<polygon class="st1" points="27.8,35.2 34.9,39.2 27.8,43.2 		"/>
		<polygon class="st4" points="34.9,47.2 27.8,43.2 34.9,39.2 		"/>
		<polygon class="st4" points="27.8,43.2 34.9,47.2 27.8,51.2 		"/>
		<polygon class="st2" points="34.9,55.2 27.8,51.2 34.9,47.2 		"/>
		<polygon class="st3" points="27.8,51.2 34.9,55.2 27.8,59.2 		"/>
		<polygon class="st4" points="34.9,63.2 27.8,59.2 34.9,55.2 		"/>
		<polygon class="st2" points="27.8,59.2 34.9,63.2 27.8,67.3 		"/>
		<polygon class="st2" points="34.9,71.3 27.8,67.3 34.9,63.2 		"/>
		<polygon class="st1" points="27.8,67.3 34.9,71.3 27.8,75.3 		"/>
		<polygon class="st1" points="34.9,79.3 27.8,75.3 34.9,71.3 		"/>
		<polygon class="st1" points="27.8,75.3 34.9,79.3 27.8,83.3 		"/>
		<polygon class="st2" points="34.9,87.3 27.8,83.3 34.9,79.3 		"/>
		<polygon class="st2" points="27.9,91.3 34.9,87.3 27.8,83.3 27.8,91.3 		"/>
		<polygon class="st2" points="34.9,91.3 34.9,87.3 27.9,91.3 		"/>
		<polygon class="st3" points="20.8,4.9 20.8,7.2 24.8,4.9 		"/>
		<polygon class="st3" points="24.8,4.9 20.8,7.2 27.8,11.2 27.8,4.9 		"/>
		<polygon class="st1" points="20.8,7.2 27.8,11.2 20.8,15.2 		"/>
		<polygon class="st3" points="27.8,19.2 20.8,15.2 27.8,11.2 		"/>
		<polygon class="st3" points="20.8,15.2 27.8,19.2 20.8,23.2 		"/>
		<polygon class="st1" points="27.8,27.2 20.8,23.2 27.8,19.2 		"/>
		<polygon class="st4" points="20.8,23.2 27.8,27.2 20.8,31.2 		"/>
		<polygon class="st2" points="27.8,35.2 20.8,31.2 27.8,27.2 		"/>
		<polygon class="st3" points="20.8,31.2 27.8,35.2 20.8,39.2 		"/>
		<polygon class="st4" points="27.8,43.2 20.8,39.2 27.8,35.2 		"/>
		<polygon class="st1" points="20.8,39.2 27.8,43.2 20.8,47.2 		"/>
		<polygon class="st4" points="27.8,51.2 20.8,47.2 27.8,43.2 		"/>
		<polygon class="st1" points="20.8,47.2 27.8,51.2 20.8,55.2 		"/>
		<polygon class="st1" points="27.8,59.2 20.8,55.2 27.8,51.2 		"/>
		<polygon class="st1" points="20.8,55.2 27.8,59.2 20.8,63.2 		"/>
		<polygon class="st1" points="27.8,67.3 20.8,63.2 27.8,59.2 		"/>
		<polygon class="st2" points="20.8,63.2 27.8,67.3 20.8,71.3 		"/>
		<polygon class="st1" points="27.8,75.3 20.8,71.3 27.8,67.3 		"/>
		<polygon class="st1" points="20.8,71.3 27.8,75.3 20.8,79.3 		"/>
		<polygon class="st1" points="27.8,83.3 20.8,79.3 27.8,75.3 		"/>
		<polygon class="st1" points="20.8,79.3 27.8,83.3 20.8,87.3 		"/>
		<polygon class="st3" points="27.8,91.3 27.8,83.3 20.8,87.3 27.8,91.3 		"/>
		<polygon class="st1" points="27.8,90.1 20.8,87.3 20.8,90.1 		"/>
		<polygon class="st3" points="17.7,5.4 20.8,7.2 20.8,4.9 		"/>
		<polygon class="st3" points="14.2,6.9 13.7,11.2 20.8,7.2 17.9,5.3 		"/>
		<polygon class="st1" points="20.8,15.2 13.7,11.2 20.8,7.2 		"/>
		<polygon class="st3" points="13.7,11.2 20.8,15.2 13.7,19.2 		"/>
		<polygon class="st1" points="20.8,23.2 13.7,19.2 20.8,15.2 		"/>
		<polygon class="st1" points="13.7,19.2 20.8,23.2 13.7,27.2 		"/>
		<polygon class="st1" points="20.8,31.2 13.7,27.2 20.8,23.2 		"/>
		<polygon class="st1" points="13.7,27.2 20.8,31.2 13.7,35.2 		"/>
		<polygon class="st4" points="20.8,39.2 13.7,35.2 20.8,31.2 		"/>
		<polygon class="st2" points="13.7,35.2 20.8,39.2 13.7,43.2 		"/>
		<polygon class="st3" points="20.8,47.2 13.7,43.2 20.8,39.2 		"/>
		<polygon class="st1" points="13.7,43.2 20.8,47.2 13.7,51.2 		"/>
		<polygon class="st1" points="20.8,55.2 13.7,51.2 20.8,47.2 		"/>
		<polygon class="st3" points="13.7,51.2 20.8,55.2 13.7,59.2 		"/>
		<polygon class="st3" points="20.8,63.2 13.7,59.2 20.8,55.2 		"/>
		<polygon class="st2" points="13.7,59.2 20.8,63.2 13.7,67.3 		"/>
		<polygon class="st3" points="20.8,71.3 13.7,67.3 20.8,63.2 		"/>
		<polygon class="st3" points="13.7,67.3 20.8,71.3 13.7,75.3 		"/>
		<polygon class="st1" points="20.8,79.3 13.7,75.3 20.8,71.3 		"/>
		<polygon class="st1" points="13.7,75.3 20.8,79.3 13.7,83.3 		"/>
		<polygon class="st4" points="20.8,87.3 13.7,83.3 20.8,79.3 		"/>
		<polygon class="st4" points="14.2,88.6 20.8,87.3 13.7,83.3 13.5,88.2 		"/>
		<path class="st3" d="M20.8,90v-2.8l-4.3,2.3c0,0,1.6,0.4,2.1,0.5C19.1,90.1,20.8,90,20.8,90z"/>
		<path class="st2" d="M13.7,19.2l-6.5-3.8c0,0,0.8-2.7,1.3-3.4c0.5-0.8,1.6-2.1,2.3-2.8c0.7-0.8,3.4-2.6,3.4-2.6L13.7,19.2z"/>
		<polygon class="st1" points="6.9,15.2 13.7,19.2 6.7,23.2 		"/>
		<polygon class="st1" points="13.7,27.2 6.7,23.2 13.7,19.2 		"/>
		<polygon class="st3" points="6.7,23.2 13.7,27.2 6.7,31.2 		"/>
		<polygon class="st3" points="13.7,35.2 6.7,31.2 13.7,27.2 		"/>
		<polygon class="st1" points="6.7,31.2 13.7,35.2 6.7,39.2 		"/>
		<polygon class="st1" points="13.7,43.2 6.7,39.2 13.7,35.2 		"/>
		<polygon class="st3" points="6.7,39.2 13.7,43.2 6.7,47.2 		"/>
		<polygon class="st1" points="13.7,51.2 6.7,47.2 13.7,43.2 		"/>
		<polygon class="st4" points="6.7,47.2 13.7,51.2 6.7,55.2 		"/>
		<polygon class="st2" points="13.7,59.2 6.7,55.2 13.7,51.2 		"/>
		<polygon class="st1" points="6.7,55.2 13.7,59.2 6.7,63.2 		"/>
		<polygon class="st4" points="13.7,67.3 6.7,63.2 13.7,59.2 		"/>
		<polygon class="st1" points="6.7,63.2 13.7,67.3 6.7,71.3 		"/>
		<polygon class="st3" points="13.7,75.3 6.7,71.3 13.7,67.3 		"/>
		<polygon class="st3" points="6.7,71.3 13.7,75.3 6.7,79.3 		"/>
		<polygon class="st3" points="13.7,83.3 6.7,79.3 13.7,75.3 		"/>
		<polygon class="st3" points="6.7,79.3 13.7,83.3 8.8,84.2 		"/>
		<path class="st2" d="M13.5,88.2l0.2-5l-4.6,1c0,0,0.8,1,1.3,1.6C11.3,86.9,13.5,88.2,13.5,88.2z"/>
	</g>
	<g>
		<polygon class="st1" points="83.3,6.7 83.9,11.2 87.1,9.3 85.2,7.4 		"/>
		<polygon class="st2" points="90.9,15.2 83.9,11.2 87.1,9.3 89.1,11.2 		"/>
		<polygon class="st3" points="83.9,11.2 90.9,15.2 83.9,19.2 		"/>
		<polygon class="st2" points="90.9,23.2 83.9,19.2 90.9,15.2 		"/>
		<polygon class="st1" points="83.9,19.2 90.9,23.2 83.9,27.2 		"/>
		<polygon class="st4" points="90.9,31.2 83.9,27.2 90.9,23.2 		"/>
		<polygon class="st1" points="83.9,27.2 90.9,31.2 83.9,35.2 		"/>
		<polygon class="st1" points="90.9,39.2 83.9,35.2 90.9,31.2 		"/>
		<polygon class="st1" points="83.9,35.2 90.9,39.2 83.9,43.2 		"/>
		<polygon class="st4" points="90.9,47.2 83.9,43.2 90.9,39.2 		"/>
		<polygon class="st1" points="83.9,43.2 90.9,47.2 83.9,51.2 		"/>
		<polygon class="st2" points="90.9,55.2 83.9,51.2 90.9,47.2 		"/>
		<polygon class="st1" points="83.9,51.2 90.9,55.2 83.9,59.2 		"/>
		<polygon class="st3" points="90.9,63.2 83.9,59.2 90.9,55.2 		"/>
		<polygon class="st1" points="83.9,59.2 90.9,63.2 83.9,67.3 		"/>
		<polygon class="st3" points="90.9,71.3 83.9,67.3 90.9,63.2 		"/>
		<polygon class="st1" points="83.9,67.3 90.9,71.3 83.9,75.3 		"/>
		<polygon class="st1" points="90.9,79.3 83.9,75.3 90.9,71.3 		"/>
		<polygon class="st2" points="83.9,75.3 90.9,79.3 83.9,83.3 		"/>
		<path class="st4" d="M87.9,85.6l-4-2.3l7-4c0,0-0.8,2.8-1.3,3.7C89.3,83.7,87.9,85.6,87.9,85.6z"/>
		<polygon class="st3" points="83.9,88.5 85.9,87.5 87.9,85.6 83.9,83.3 83.9,88.5 		"/>
		<path class="st1" d="M78.8,5.5l-5.1-0.1l10.2,5.8l-0.6-4.5c0,0-1.1-0.5-1.8-0.9C80.9,5.5,78.8,5.5,78.8,5.5z"/>
		<polygon class="st4" points="76.9,7.2 83.9,11.2 76.9,15.2 		"/>
		<polygon class="st4" points="83.9,19.2 76.9,15.2 83.9,11.2 		"/>
		<polygon class="st3" points="76.9,15.2 83.9,19.2 76.9,23.2 		"/>
		<polygon class="st1" points="83.9,27.2 76.9,23.2 83.9,19.2 		"/>
		<polygon class="st3" points="76.9,23.2 83.9,27.2 76.9,31.2 		"/>
		<polygon class="st3" points="83.9,35.2 76.9,31.2 83.9,27.2 		"/>
		<polygon class="st3" points="76.9,31.2 83.9,35.2 76.9,39.2 		"/>
		<polygon class="st2" points="83.9,43.2 76.9,39.2 83.9,35.2 		"/>
		<polygon class="st2" points="76.9,39.2 83.9,43.2 76.9,47.2 		"/>
		<polygon class="st1" points="83.9,51.2 76.9,47.2 83.9,43.2 		"/>
		<polygon class="st2" points="76.9,47.2 83.9,51.2 76.9,55.2 		"/>
		<polygon class="st1" points="83.9,59.2 76.9,55.2 83.9,51.2 		"/>
		<polygon class="st2" points="76.9,55.2 83.9,59.2 76.9,63.2 		"/>
		<polygon class="st1" points="83.9,67.3 76.9,63.2 83.9,59.2 		"/>
		<polygon class="st1" points="76.9,63.2 83.9,67.3 76.9,71.3 		"/>
		<polygon class="st1" points="83.9,75.3 76.9,71.3 83.9,67.3 		"/>
		<polygon class="st1" points="76.9,71.3 83.9,75.3 76.9,79.3 		"/>
		<polygon class="st1" points="83.9,83.3 76.9,79.3 83.9,75.3 		"/>
		<polygon class="st3" points="76.9,79.3 83.9,83.3 76.9,87.3 		"/>
		<polygon class="st1" points="83.9,88.5 83.9,83.3 76.9,87.3 83.9,88.5 		"/>
		<polygon class="st2" points="83.9,88.5 76.9,87.3 76.9,90.1 80.4,89.8 		"/>
		<polygon class="st2" points="69.9,4.9 69.9,11.2 76.9,7.2 72.9,4.9 		"/>
		<polygon class="st2" points="76.9,15.2 69.9,11.2 76.9,7.2 		"/>
		<polygon class="st1" points="69.9,11.2 76.9,15.2 69.9,19.2 		"/>
		<polygon class="st2" points="76.9,23.2 69.9,19.2 76.9,15.2 		"/>
		<polygon class="st3" points="69.9,19.2 76.9,23.2 69.9,27.2 		"/>
		<polygon class="st3" points="76.9,31.2 69.9,27.2 76.9,23.2 		"/>
		<polygon class="st3" points="69.9,27.2 76.9,31.2 69.9,35.2 		"/>
		<polygon class="st2" points="76.9,39.2 69.9,35.2 76.9,31.2 		"/>
		<polygon class="st1" points="69.9,35.2 76.9,39.2 69.9,43.2 		"/>
		<polygon class="st4" points="76.9,47.2 69.9,43.2 76.9,39.2 		"/>
		<polygon class="st1" points="69.9,43.2 76.9,47.2 69.9,51.2 		"/>
		<polygon class="st1" points="76.9,55.2 69.9,51.2 76.9,47.2 		"/>
		<polygon class="st1" points="69.9,51.2 76.9,55.2 69.9,59.2 		"/>
		<polygon class="st1" points="76.9,63.2 69.9,59.2 76.9,55.2 		"/>
		<polygon class="st1" points="69.9,59.2 76.9,63.2 69.9,67.3 		"/>
		<polygon class="st1" points="76.9,71.3 69.9,67.3 76.9,63.2 		"/>
		<polygon class="st1" points="69.9,67.3 76.9,71.3 69.9,75.3 		"/>
		<polygon class="st4" points="76.9,79.3 69.9,75.3 76.9,71.3 		"/>
		<polygon class="st1" points="69.9,75.3 76.9,79.3 69.9,83.3 		"/>
		<polygon class="st1" points="76.9,87.3 69.9,83.3 76.9,79.3 		"/>
		<polygon class="st1" points="69.9,91.3 76.9,87.3 69.9,83.3 69.9,91.3 		"/>
		<polygon class="st2" points="76.9,91.3 76.9,87.3 69.9,91.3 		"/>
		<polygon class="st1" points="62.8,4.9 62.8,7.2 66.8,4.9 		"/>
		<polygon class="st3" points="66.8,4.9 62.8,7.2 69.9,11.2 69.9,4.9 		"/>
		<polygon class="st3" points="62.8,7.2 69.9,11.2 62.8,15.2 		"/>
		<polygon class="st1" points="69.9,19.2 62.8,15.2 69.9,11.2 		"/>
		<polygon class="st1" points="62.8,15.2 69.9,19.2 62.8,23.2 		"/>
		<polygon class="st1" points="69.9,27.2 62.8,23.2 69.9,19.2 		"/>
		<polygon class="st1" points="62.8,23.2 69.9,27.2 62.8,31.2 		"/>
		<polygon class="st1" points="69.9,35.2 62.8,31.2 69.9,27.2 		"/>
		<polygon class="st1" points="62.8,31.2 69.9,35.2 62.8,39.2 		"/>
		<polygon class="st1" points="69.9,43.2 62.8,39.2 69.9,35.2 		"/>
		<polygon class="st3" points="62.8,39.2 69.9,43.2 62.8,47.2 		"/>
		<polygon class="st2" points="69.9,51.2 62.8,47.2 69.9,43.2 		"/>
		<polygon class="st3" points="62.8,47.2 69.9,51.2 62.8,55.2 		"/>
		<polygon class="st1" points="69.9,59.2 62.8,55.2 69.9,51.2 		"/>
		<polygon class="st3" points="62.8,55.2 69.9,59.2 62.8,63.2 		"/>
		<polygon class="st3" points="69.9,67.3 62.8,63.2 69.9,59.2 		"/>
		<polygon class="st4" points="62.8,63.2 69.9,67.3 62.8,71.3 		"/>
		<polygon class="st3" points="69.9,75.3 62.8,71.3 69.9,67.3 		"/>
		<polygon class="st1" points="62.8,71.3 69.9,75.3 62.8,79.3 		"/>
		<polygon class="st2" points="69.9,83.3 62.8,79.3 69.9,75.3 		"/>
		<polygon class="st2" points="62.8,79.3 69.9,83.3 62.8,87.3 		"/>
		<polygon class="st1" points="69.9,91.3 69.9,83.3 62.8,87.3 69.8,91.3 		"/>
		<polygon class="st4" points="69.8,91.3 62.8,87.3 62.8,91.3 		"/>
		<polygon class="st1" points="58.9,4.9 62.8,7.2 62.8,4.9 		"/>
		<polygon class="st4" points="55.8,4.9 55.8,11.2 62.8,7.2 58.9,4.9 		"/>
		<polygon class="st1" points="62.8,15.2 55.8,11.2 62.8,7.2 		"/>
		<polygon class="st4" points="55.8,11.2 62.8,15.2 55.8,19.2 		"/>
		<polygon class="st4" points="62.8,23.2 55.8,19.2 62.8,15.2 		"/>
		<polygon class="st4" points="55.8,19.2 62.8,23.2 55.8,27.2 		"/>
		<polygon class="st3" points="62.8,31.2 55.8,27.2 62.8,23.2 		"/>
		<polygon class="st3" points="55.8,27.2 62.8,31.2 55.8,35.2 		"/>
		<polygon class="st1" points="62.8,39.2 55.8,35.2 62.8,31.2 		"/>
		<polygon class="st4" points="55.8,35.2 62.8,39.2 55.8,43.2 		"/>
		<polygon class="st2" points="62.8,47.2 55.8,43.2 62.8,39.2 		"/>
		<polygon class="st1" points="55.8,43.2 62.8,47.2 55.8,51.2 		"/>
		<polygon class="st1" points="62.8,55.2 55.8,51.2 62.8,47.2 		"/>
		<polygon class="st1" points="55.8,51.2 62.8,55.2 55.8,59.2 		"/>
		<polygon class="st3" points="62.8,63.2 55.8,59.2 62.8,55.2 		"/>
		<polygon class="st3" points="55.8,59.2 62.8,63.2 55.8,67.3 		"/>
		<polygon class="st3" points="62.8,71.3 55.8,67.3 62.8,63.2 		"/>
		<polygon class="st4" points="55.8,67.3 62.8,71.3 55.8,75.3 		"/>
		<polygon class="st1" points="62.8,79.3 55.8,75.3 62.8,71.3 		"/>
		<polygon class="st2" points="55.8,75.3 62.8,79.3 55.8,83.3 		"/>
		<polygon class="st1" points="62.8,87.3 55.8,83.3 62.8,79.3 		"/>
		<polygon class="st1" points="55.9,91.3 62.8,87.3 55.8,83.3 55.8,91.3 		"/>
		<polygon class="st1" points="62.8,91.3 62.8,87.3 55.9,91.3 		"/>
		<polygon class="st2" points="48.8,4.9 48.8,7.2 52.7,4.9 		"/>
		<polygon class="st2" points="52.7,4.9 48.8,7.2 55.8,11.2 55.8,4.9 		"/>
		<polygon class="st1" points="48.8,7.2 55.8,11.2 48.8,15.2 		"/>
		<polygon class="st2" points="55.8,19.2 48.8,15.2 55.8,11.2 		"/>
		<polygon class="st2" points="48.8,15.2 55.8,19.2 48.8,23.2 		"/>
		<polygon class="st3" points="55.8,27.2 48.8,23.2 55.8,19.2 		"/>
		<polygon class="st3" points="48.8,23.2 55.8,27.2 48.8,31.2 		"/>
		<polygon class="st2" points="55.8,35.2 48.8,31.2 55.8,27.2 		"/>
		<polygon class="st1" points="48.8,31.2 55.8,35.2 48.8,39.2 		"/>
		<polygon class="st4" points="55.8,43.2 48.8,39.2 55.8,35.2 		"/>
		<polygon class="st3" points="48.8,39.2 55.8,43.2 48.8,47.2 		"/>
		<polygon class="st2" points="55.8,51.2 48.8,47.2 55.8,43.2 		"/>
		<polygon class="st1" points="48.8,47.2 55.8,51.2 48.8,55.2 		"/>
		<polygon class="st3" points="55.8,59.2 48.8,55.2 55.8,51.2 		"/>
		<polygon class="st3" points="48.8,55.2 55.8,59.2 48.8,63.2 		"/>
		<polygon class="st1" points="55.8,67.3 48.8,63.2 55.8,59.2 		"/>
		<polygon class="st4" points="48.8,63.2 55.8,67.3 48.8,71.3 		"/>
		<polygon class="st3" points="55.8,75.3 48.8,71.3 55.8,67.3 		"/>
		<polygon class="st4" points="48.8,71.3 55.8,75.3 48.8,79.3 		"/>
		<polygon class="st2" points="55.8,83.3 48.8,79.3 55.8,75.3 		"/>
		<polygon class="st1" points="48.8,79.3 55.8,83.3 48.8,87.3 		"/>
		<polygon class="st2" points="55.8,91.3 55.8,83.3 48.8,87.3 55.8,91.3 		"/>
		<polygon class="st3" points="55.8,91.3 48.8,87.3 48.8,91.3 		"/>
		<polygon class="st1" points="44.8,4.9 48.8,7.2 48.8,4.9 		"/>
		<polygon class="st1" points="41.8,4.9 41.8,11.2 48.8,7.2 44.8,4.9 		"/>
		<polygon class="st2" points="48.8,15.2 41.8,11.2 48.8,7.2 		"/>
		<polygon class="st3" points="41.8,11.2 48.8,15.2 41.8,19.2 		"/>
		<polygon class="st1" points="48.8,23.2 41.8,19.2 48.8,15.2 		"/>
		<polygon class="st1" points="41.8,19.2 48.8,23.2 41.8,27.2 		"/>
		<polygon class="st1" points="48.8,31.2 41.8,27.2 48.8,23.2 		"/>
		<polygon class="st1" points="41.8,27.2 48.8,31.2 41.8,35.2 		"/>
		<polygon class="st1" points="48.8,39.2 41.8,35.2 48.8,31.2 		"/>
		<polygon class="st1" points="41.8,35.2 48.8,39.2 41.8,43.2 		"/>
		<polygon class="st3" points="48.8,47.2 41.8,43.2 48.8,39.2 		"/>
		<polygon class="st2" points="41.8,43.2 48.8,47.2 41.8,51.2 		"/>
		<polygon class="st1" points="48.8,55.2 41.8,51.2 48.8,47.2 		"/>
		<polygon class="st2" points="41.8,51.2 48.8,55.2 41.8,59.2 		"/>
		<polygon class="st2" points="48.8,63.2 41.8,59.2 48.8,55.2 		"/>
		<polygon class="st1" points="41.8,59.2 48.8,63.2 41.8,67.3 		"/>
		<polygon class="st1" points="48.8,71.3 41.8,67.3 48.8,63.2 		"/>
		<polygon class="st2" points="41.8,67.3 48.8,71.3 41.8,75.3 		"/>
		<polygon class="st1" points="48.8,79.3 41.8,75.3 48.8,71.3 		"/>
		<polygon class="st1" points="41.8,75.3 48.8,79.3 41.8,83.3 		"/>
		<polygon class="st4" points="48.8,87.3 41.8,83.3 48.8,79.3 		"/>
		<polygon class="st1" points="41.8,91.3 48.8,87.3 41.8,83.3 41.8,91.3 		"/>
		<polygon class="st3" points="48.8,91.3 48.8,87.3 41.8,91.3 		"/>
		<polygon class="st1" points="34.7,4.9 34.7,7.2 38.7,4.9 		"/>
		<polygon class="st3" points="38.7,4.9 34.7,7.2 41.8,11.2 41.8,4.9 		"/>
		<polygon class="st3" points="34.7,7.2 41.8,11.2 34.7,15.2 		"/>
		<polygon class="st4" points="41.8,19.2 34.7,15.2 41.8,11.2 		"/>
		<polygon class="st4" points="34.7,15.2 41.8,19.2 34.7,23.2 		"/>
		<polygon class="st1" points="41.8,27.2 34.7,23.2 41.8,19.2 		"/>
		<polygon class="st3" points="34.7,23.2 41.8,27.2 34.7,31.2 		"/>
		<polygon class="st4" points="41.8,35.2 34.7,31.2 41.8,27.2 		"/>
		<polygon class="st1" points="34.7,31.2 41.8,35.2 34.7,39.2 		"/>
		<polygon class="st1" points="41.8,43.2 34.7,39.2 41.8,35.2 		"/>
		<polygon class="st3" points="34.7,39.2 41.8,43.2 34.7,47.2 		"/>
		<polygon class="st3" points="41.8,51.2 34.7,47.2 41.8,43.2 		"/>
		<polygon class="st1" points="34.7,47.2 41.8,51.2 34.7,55.2 		"/>
		<polygon class="st2" points="41.8,59.2 34.7,55.2 41.8,51.2 		"/>
		<polygon class="st3" points="34.7,55.2 41.8,59.2 34.7,63.2 		"/>
		<polygon class="st1" points="41.8,67.3 34.7,63.2 41.8,59.2 		"/>
		<polygon class="st3" points="34.7,63.2 41.8,67.3 34.7,71.3 		"/>
		<polygon class="st1" points="41.8,75.3 34.7,71.3 41.8,67.3 		"/>
		<polygon class="st1" points="34.7,71.3 41.8,75.3 34.7,79.3 		"/>
		<polygon class="st1" points="41.8,83.3 34.7,79.3 41.8,75.3 		"/>
		<polygon class="st2" points="34.7,79.3 41.8,83.3 34.7,87.3 		"/>
		<polygon class="st1" points="41.8,91.3 41.8,83.3 34.7,87.3 41.7,91.3 		"/>
		<polygon class="st1" points="41.7,91.3 34.7,87.3 34.7,91.3 		"/>
		<polygon class="st1" points="30.8,4.9 34.7,7.2 34.7,4.9 		"/>
		<polygon class="st3" points="27.7,4.9 27.7,11.2 34.7,7.2 30.8,4.9 		"/>
		<polygon class="st1" points="34.7,15.2 27.7,11.2 34.7,7.2 		"/>
		<polygon class="st3" points="27.7,11.2 34.7,15.2 27.7,19.2 		"/>
		<polygon class="st1" points="34.7,23.2 27.7,19.2 34.7,15.2 		"/>
		<polygon class="st1" points="27.7,19.2 34.7,23.2 27.7,27.2 		"/>
		<polygon class="st1" points="34.7,31.2 27.7,27.2 34.7,23.2 		"/>
		<polygon class="st4" points="27.7,27.2 34.7,31.2 27.7,35.2 		"/>
		<polygon class="st4" points="34.7,39.2 27.7,35.2 34.7,31.2 		"/>
		<polygon class="st1" points="27.7,35.2 34.7,39.2 27.7,43.2 		"/>
		<polygon class="st4" points="34.7,47.2 27.7,43.2 34.7,39.2 		"/>
		<polygon class="st4" points="27.7,43.2 34.7,47.2 27.7,51.2 		"/>
		<polygon class="st2" points="34.7,55.2 27.7,51.2 34.7,47.2 		"/>
		<polygon class="st3" points="27.7,51.2 34.7,55.2 27.7,59.2 		"/>
		<polygon class="st4" points="34.7,63.2 27.7,59.2 34.7,55.2 		"/>
		<polygon class="st2" points="27.7,59.2 34.7,63.2 27.7,67.3 		"/>
		<polygon class="st2" points="34.7,71.3 27.7,67.3 34.7,63.2 		"/>
		<polygon class="st1" points="27.7,67.3 34.7,71.3 27.7,75.3 		"/>
		<polygon class="st1" points="34.7,79.3 27.7,75.3 34.7,71.3 		"/>
		<polygon class="st1" points="27.7,75.3 34.7,79.3 27.7,83.3 		"/>
		<polygon class="st2" points="34.7,87.3 27.7,83.3 34.7,79.3 		"/>
		<polygon class="st2" points="27.8,91.3 34.7,87.3 27.7,83.3 27.7,91.3 		"/>
		<polygon class="st2" points="34.7,91.3 34.7,87.3 27.8,91.3 		"/>
		<polygon class="st3" points="20.7,4.9 20.7,7.2 24.6,4.9 		"/>
		<polygon class="st3" points="24.6,4.9 20.7,7.2 27.7,11.2 27.7,4.9 		"/>
		<polygon class="st1" points="20.7,7.2 27.7,11.2 20.7,15.2 		"/>
		<polygon class="st3" points="27.7,19.2 20.7,15.2 27.7,11.2 		"/>
		<polygon class="st3" points="20.7,15.2 27.7,19.2 20.7,23.2 		"/>
		<polygon class="st1" points="27.7,27.2 20.7,23.2 27.7,19.2 		"/>
		<polygon class="st4" points="20.7,23.2 27.7,27.2 20.7,31.2 		"/>
		<polygon class="st2" points="27.7,35.2 20.7,31.2 27.7,27.2 		"/>
		<polygon class="st3" points="20.7,31.2 27.7,35.2 20.7,39.2 		"/>
		<polygon class="st4" points="27.7,43.2 20.7,39.2 27.7,35.2 		"/>
		<polygon class="st1" points="20.7,39.2 27.7,43.2 20.7,47.2 		"/>
		<polygon class="st4" points="27.7,51.2 20.7,47.2 27.7,43.2 		"/>
		<polygon class="st1" points="20.7,47.2 27.7,51.2 20.7,55.2 		"/>
		<polygon class="st1" points="27.7,59.2 20.7,55.2 27.7,51.2 		"/>
		<polygon class="st1" points="20.7,55.2 27.7,59.2 20.7,63.2 		"/>
		<polygon class="st1" points="27.7,67.3 20.7,63.2 27.7,59.2 		"/>
		<polygon class="st2" points="20.7,63.2 27.7,67.3 20.7,71.3 		"/>
		<polygon class="st1" points="27.7,75.3 20.7,71.3 27.7,67.3 		"/>
		<polygon class="st1" points="20.7,71.3 27.7,75.3 20.7,79.3 		"/>
		<polygon class="st1" points="27.7,83.3 20.7,79.3 27.7,75.3 		"/>
		<polygon class="st1" points="20.7,79.3 27.7,83.3 20.7,87.3 		"/>
		<polygon class="st3" points="27.7,91.3 27.7,83.3 20.7,87.3 27.7,91.3 		"/>
		<polygon class="st1" points="27.7,90.1 20.7,87.3 20.7,90.1 		"/>
		<polygon class="st3" points="17.6,5.4 20.7,7.2 20.7,4.9 		"/>
		<polygon class="st3" points="14.2,6.9 13.7,11.2 20.7,7.2 17.9,5.3 		"/>
		<polygon class="st1" points="20.7,15.2 13.7,11.2 20.7,7.2 		"/>
		<polygon class="st3" points="13.7,11.2 20.7,15.2 13.7,19.2 		"/>
		<polygon class="st1" points="20.7,23.2 13.7,19.2 20.7,15.2 		"/>
		<polygon class="st1" points="13.7,19.2 20.7,23.2 13.7,27.2 		"/>
		<polygon class="st1" points="20.7,31.2 13.7,27.2 20.7,23.2 		"/>
		<polygon class="st1" points="13.7,27.2 20.7,31.2 13.7,35.2 		"/>
		<polygon class="st4" points="20.7,39.2 13.7,35.2 20.7,31.2 		"/>
		<polygon class="st2" points="13.7,35.2 20.7,39.2 13.7,43.2 		"/>
		<polygon class="st3" points="20.7,47.2 13.7,43.2 20.7,39.2 		"/>
		<polygon class="st1" points="13.7,43.2 20.7,47.2 13.7,51.2 		"/>
		<polygon class="st1" points="20.7,55.2 13.7,51.2 20.7,47.2 		"/>
		<polygon class="st3" points="13.7,51.2 20.7,55.2 13.7,59.2 		"/>
		<polygon class="st3" points="20.7,63.2 13.7,59.2 20.7,55.2 		"/>
		<polygon class="st2" points="13.7,59.2 20.7,63.2 13.7,67.3 		"/>
		<polygon class="st3" points="20.7,71.3 13.7,67.3 20.7,63.2 		"/>
		<polygon class="st3" points="13.7,67.3 20.7,71.3 13.7,75.3 		"/>
		<polygon class="st1" points="20.7,79.3 13.7,75.3 20.7,71.3 		"/>
		<polygon class="st1" points="13.7,75.3 20.7,79.3 13.7,83.3 		"/>
		<polygon class="st4" points="20.7,87.3 13.7,83.3 20.7,79.3 		"/>
		<polygon class="st4" points="14.2,88.6 20.7,87.3 13.7,83.3 13.4,88.2 		"/>
		<path class="st3" d="M20.7,90v-2.8l-4.3,2.3c0,0,1.6,0.4,2.1,0.5C19,90.1,20.7,90,20.7,90z"/>
		<path class="st2" d="M13.7,19.2l-6.5-3.8c0,0,0.8-2.7,1.3-3.4c0.5-0.8,1.6-2.1,2.3-2.8c0.7-0.8,3.4-2.6,3.4-2.6L13.7,19.2z"/>
		<polygon class="st1" points="6.9,15.2 13.7,19.2 6.7,23.2 		"/>
		<polygon class="st1" points="13.7,27.2 6.7,23.2 13.7,19.2 		"/>
		<polygon class="st3" points="6.7,23.2 13.7,27.2 6.7,31.2 		"/>
		<polygon class="st3" points="13.7,35.2 6.7,31.2 13.7,27.2 		"/>
		<polygon class="st1" points="6.7,31.2 13.7,35.2 6.7,39.2 		"/>
		<polygon class="st1" points="13.7,43.2 6.7,39.2 13.7,35.2 		"/>
		<polygon class="st3" points="6.7,39.2 13.7,43.2 6.7,47.2 		"/>
		<polygon class="st1" points="13.7,51.2 6.7,47.2 13.7,43.2 		"/>
		<polygon class="st4" points="6.7,47.2 13.7,51.2 6.7,55.2 		"/>
		<polygon class="st2" points="13.7,59.2 6.7,55.2 13.7,51.2 		"/>
		<polygon class="st1" points="6.7,55.2 13.7,59.2 6.7,63.2 		"/>
		<polygon class="st4" points="13.7,67.3 6.7,63.2 13.7,59.2 		"/>
		<polygon class="st1" points="6.7,63.2 13.7,67.3 6.7,71.3 		"/>
		<polygon class="st3" points="13.7,75.3 6.7,71.3 13.7,67.3 		"/>
		<polygon class="st3" points="6.7,71.3 13.7,75.3 6.7,79.3 		"/>
		<polygon class="st3" points="13.7,83.3 6.7,79.3 13.7,75.3 		"/>
		<polygon class="st3" points="6.7,79.3 13.7,83.3 8.7,84.2 		"/>
		<path class="st2" d="M13.4,88.2l0.2-5l-4.6,1c0,0,0.8,1,1.3,1.6C11.3,86.9,13.4,88.2,13.4,88.2z"/>
	</g>
	<g>
		<path class="st5" d="M34.6,78.8c0,8.5-5.1,13.3-13.5,13.3c-7.2,0-14.8-3.1-16.7-9c-0.9-2.6,1.2-5.4,3.9-6c2.8-0.5,4.7,1.4,6,4
			c1.4,2.6,2.6,3.1,5.1,3.1c2.9,0,5.2-2.3,5.2-5.3c0-2.9-2.3-5.2-5.2-5.2c-4.1,0-7.9-1.6-10.8-4.5C5.5,66.3,4,62.4,4,58.3
			C4,49.9,10.8,43,19.3,43c7.1,0,13.7,4.9,14.7,10.6c0.5,2.8-1.1,5.5-3.9,6c-2.8,0.6-5.1-1.2-6-3.8c-0.6-1.6-2.3-2.8-4.8-2.8
			c-2.9,0-5.2,2.3-5.2,5.2c0,2.9,2.3,5.2,5.2,5.2c4.1,0,7.9,1.6,10.8,4.5C33,71,34.6,74.7,34.6,78.8z"/>
	</g>
	<g>
		<g>
			<path class="st6" d="M92.4,61.4v22.2c0,3.3-2.4,5.7-5.7,5.7c-2.3,0-5.4-2.4-5.4-5.7c-4.9,4.1-10.3,5.7-16.8,5.7
				c-16,0-28.7-11.9-28.7-27.9c0-16,12.7-28.7,28.7-28.7C80.5,32.7,92.4,45.4,92.4,61.4z M81.3,61.4c0-9.5-7.3-17.6-16.8-17.6
				c-9.5,0-17.6,8.1-17.6,17.6c0,9.5,8.1,16.8,17.6,16.8C74,78.2,81.3,71,81.3,61.4z"/>
		</g>
	</g>
	<g class="st7">
		<polygon class="st8" points="81.8,44.8 88.8,48.8 81.8,52.8 		"/>
		<polygon class="st8" points="89.5,57.3 82.4,53.3 89.5,49.3 		"/>
		<polygon class="st9" points="87.8,52.8 91.9,56 87.8,60.8 		"/>
		<polygon class="st9" points="90.3,64 83.2,60 90.3,56 		"/>
		<polygon class="st9" points="84.9,60.8 91.9,64.8 84.9,68.8 		"/>
		<polygon class="st6" points="91.4,71.3 84.4,67.3 91.4,63.2 		"/>
		<polygon class="st8" points="84.9,68.5 91.9,72.5 84.9,76.5 		"/>
		<polygon class="st9" points="91.9,80.1 84.9,76.1 91.9,72.1 		"/>
		<polygon class="st6" points="84.1,74.4 91.2,78.4 84.1,82.4 		"/>
		<path class="st6" d="M88.9,84.7l-4-2.3l7.1-4c0,0-0.9,2.8-1.3,3.7C90.3,82.8,88.9,84.7,88.9,84.7z"/>
		<polygon class="st9" points="87.5,88.9 89.5,87.9 91.5,85.9 87.5,83.6 87.5,88.9 		"/>
		<polygon class="st8" points="79.4,38.8 82.4,40.8 80.8,40.8 		"/>
		<polygon class="st8" points="86.4,44.4 80.8,40.8 82.4,40.2 		"/>
		<polygon class="st9" points="78.9,40.8 86,44.8 78.9,48.8 		"/>
		<polygon class="st8" points="87.8,52.8 80.8,48.8 86.8,45.4 		"/>
		<polygon class="st9" points="80.8,48.8 87.8,52.8 80.8,56.8 		"/>
		<polygon class="st9" points="87.8,60.8 80.8,56.8 87.8,52.8 		"/>
		<polygon class="st8" points="82.9,58.5 87.8,60.8 81.8,63.2 		"/>
		<polygon class="st6" points="87.8,68.8 80.8,64.8 87.8,60.8 		"/>
		<polygon class="st8" points="80.8,64.8 87.8,68.8 80.8,72.8 		"/>
		<polygon class="st9" points="87.8,76.9 80.8,72.8 87.8,68.8 		"/>
		<polygon class="st10" points="80.8,72.8 87.8,76.9 80.8,80.9 		"/>
		<polygon class="st8" points="87.8,84.9 80.8,80.9 87.8,76.9 		"/>
		<polygon class="st9" points="80.8,80.9 87.8,84.9 82.4,84.2 		"/>
		<polygon class="st8" points="87.3,86.9 87.8,84.9 83.6,87.3 87.7,88.2 		"/>
		<polygon class="st8" points="73.3,34.6 76.8,36.2 73.7,36.8 		"/>
		<polygon class="st9" points="80.8,40.8 73.7,36.8 79.4,37.3 		"/>
		<polygon class="st6" points="73.7,36.8 80.8,40.8 73.7,44.8 		"/>
		<polygon class="st8" points="80.8,48.8 73.7,44.8 80.8,40.8 		"/>
		<polygon class="st8" points="73.7,44.8 80.8,48.8 75.6,48.1 		"/>
		<polygon class="st9" points="80.8,56.8 79.4,52.8 80.8,48.8 		"/>
		<polygon class="st8" points="80.8,72.8 79.4,70.5 80.8,65.2 		"/>
		<polygon class="st8" points="76.8,73.5 80.8,72.8 73.7,76.9 		"/>
		<polygon class="st6" points="80.8,80.9 73.7,76.9 80.8,72.8 		"/>
		<polygon class="st10" points="73.7,76.9 80.8,80.9 73.7,84.9 		"/>
		<polygon class="st6" points="79.4,84.9 73.7,84.9 80.8,80.9 		"/>
		<polygon class="st9" points="73.3,87.3 76.8,85.7 73.7,84.9 73.3,87.3 		"/>
		<polygon class="st8" points="73.7,36.8 66.6,32.8 72.1,34.2 		"/>
		<polygon class="st6" points="66.6,32.8 73.7,36.8 66.6,40.8 		"/>
		<polygon class="st8" points="73.7,44.8 66.6,40.8 73.7,36.8 		"/>
		<polygon class="st6" points="66.6,40.8 73.7,44.8 68,44 		"/>
		<polygon class="st8" points="74.6,47.2 72.1,45.7 73.7,44.8 		"/>
		<polygon class="st8" points="69.3,78 73.7,76.9 66.6,80.9 		"/>
		<polygon class="st9" points="73.7,84.9 66.6,80.9 73.7,76.9 		"/>
		<polygon class="st8" points="66.6,80.9 73.7,84.9 66.6,88.9 		"/>
		<polygon class="st6" points="72.9,87.3 73.7,84.9 66.6,88.9 72.1,87.8 		"/>
		<polygon class="st8" points="59.4,33.9 66.6,32.8 59.6,36.8 		"/>
		<polygon class="st9" points="66.6,40.8 59.6,36.8 66.6,32.8 		"/>
		<polygon class="st9" points="59.6,36.8 66.6,40.8 59.6,44.8 		"/>
		<polygon class="st8" points="63.7,43.2 59.6,44 66.6,40.8 		"/>
		<polygon class="st8" points="66.6,80.9 59.7,78.2 65.4,78.9 		"/>
		<polygon class="st10" points="59.7,78.2 66.6,80.9 59.6,84.9 		"/>
		<polygon class="st9" points="66.6,88.9 59.6,84.9 66.6,80.9 		"/>
		<polygon class="st6" points="61.5,88.2 66.6,88.9 59.6,84.9 60.5,88.2 		"/>
		<polygon class="st8" points="59.6,36.8 54.7,35.2 59.6,34.6 		"/>
		<polygon class="st6" points="53.7,35.2 59.6,36.8 52.5,40.8 		"/>
		<polygon class="st8" points="59.6,44.8 52.5,40.8 59.6,36.8 		"/>
		<polygon class="st8" points="52.5,40.8 57,44.8 52.5,48.8 		"/>
		<polygon class="st8" points="52.1,74.8 58.1,78.2 52.5,80.9 		"/>
		<polygon class="st9" points="59.6,84.9 52.5,80.9 59.1,78.2 		"/>
		<polygon class="st8" points="52.1,78.9 59.2,82.9 52.5,86 		"/>
		<polygon class="st6" points="59.2,88.2 59.2,80.2 52.1,84.2 59.1,88.2 		"/>
		<polygon class="st8" points="52.5,40.8 49.1,40.3 57,39.8 		"/>
		<polygon class="st8" points="45.4,42 52.5,46 45.4,50 		"/>
		<polygon class="st9" points="52.5,48.8 45.4,44.8 52.5,40.8 		"/>
		<polygon class="st6" points="45.4,44.8 52.5,48.8 45.4,52.8 		"/>
		<polygon class="st8" points="48.3,53.3 45.4,52.8 52.5,48.8 		"/>
		<polygon class="st8" points="45.4,52.8 47.4,56.8 45.4,60.8 		"/>
		<polygon class="st8" points="46.9,62 45.4,60.8 46.9,60 		"/>
		<polygon class="st9" points="45.4,60.8 46.9,64.5 45.4,68.8 		"/>
		<polygon class="st8" points="50.9,73.8 45.4,68.8 46.9,68 		"/>
		<polygon class="st6" points="45.4,68.8 50.9,72.8 45.4,76.9 		"/>
		<polygon class="st6" points="52.5,80.9 45.4,76.9 52.1,74.1 		"/>
		<polygon class="st8" points="45.4,76.9 52.5,80.9 46.9,82.9 		"/>
		<polygon class="st6" points="55.7,86.4 48.6,82.4 55.7,78.4 		"/>
		<polygon class="st8" points="49,50.3 41.9,46.3 49,42.3 		"/>
		<polygon class="st8" points="41.9,44.8 49,48.8 41.9,52.8 		"/>
		<polygon class="st8" points="45.4,52.8 38.4,48.8 45.4,44.8 		"/>
		<polygon class="st6" points="38.4,48.8 45.4,52.8 38.4,56.8 		"/>
		<polygon class="st9" points="45.4,60.8 38.4,56.8 45.4,52.8 		"/>
		<polygon class="st9" points="38.4,56.8 45.4,60.8 38.4,64.8 		"/>
		<polygon class="st6" points="45.4,68.8 38.4,64.8 45.4,60.8 		"/>
		<polygon class="st8" points="38.4,64.8 45.4,68.8 38.4,72.8 		"/>
		<polygon class="st9" points="45.4,76.9 38.4,72.8 45.4,68.8 		"/>
		<polygon class="st8" points="41.1,69.8 48.2,73.8 41.1,77.8 		"/>
		<polygon class="st9" points="50.4,84.2 43.4,80.2 50.4,76.2 		"/>
		<polygon class="st8" points="44.2,57.3 37.1,53.3 44.2,49.3 		"/>
		<polygon class="st8" points="37.1,54.5 44.2,58.5 37.1,62.5 		"/>
		<polygon class="st8" points="43.4,66 36.3,62 43.4,58 		"/>
		<polygon class="st8" points="36.7,58.9 43.8,62.9 36.7,66.9 		"/>
		<polygon class="st8" points="43.4,70.9 36.3,66.9 43.4,62.9 		"/>
		<polygon class="st8" points="38.4,64.5 45.4,68.5 38.4,72.5 		"/>
		<polygon class="st8" points="43.4,76.5 37.9,72.1 43.4,68.5 		"/>
	</g>
</g>
</svg>
