<?xml version="1.0" encoding="utf-8"?>
<!-- Generator: Adobe Illustrator 23.0.2, SVG Export Plug-In . SVG Version: 6.00 Build 0)  -->
<svg version="1.1" xmlns="http://www.w3.org/2000/svg" xmlns:xlink="http://www.w3.org/1999/xlink" x="0px" y="0px"
	 viewBox="0 0 284.7 97.5" style="enable-background:new 0 0 284.7 97.5;" xml:space="preserve">
<style type="text/css">
	.st0{fill:#1C1C1E;}
	.st1{fill:#F4A51F;}
</style>
<g id="Layer_1">
	<g>
		<g>
			<path class="st0" d="M32.6,75.8c0,7.2-5.8,13.1-13,13.1c-6.2,0-11.1-4.4-12.8-9.5c-0.8-2.3,1-4.6,3.3-5.1c2.3-0.4,4,1.2,5.1,3.4
				c1.2,2.3,2.3,2.6,4.3,2.6c2.4,0,4.4-2,4.4-4.5c0-2.4-2-4.4-4.4-4.4c-3.5,0-6.8-1.4-9.2-3.8c-2.5-2.4-3.8-5.7-3.8-9.2
				c0-7.2,5.8-13,13-13c6.1,0,11.6,4.2,12.5,9c0.4,2.3-1,4.7-3.3,5.1c-2.3,0.5-4.3-1-5.1-3.2c-0.5-1.4-2-2.3-4.1-2.3
				c-2.4,0-4.4,2-4.4,4.4c0,2.4,2,4.4,4.4,4.4c3.5,0,6.8,1.4,9.2,3.8C31.3,69.1,32.6,72.3,32.6,75.8z"/>
			<path class="st0" d="M36.8,67c0-12.1,9.8-21.8,21.8-21.8c12.1,0,21.8,9.7,21.8,21.8c0,12-9.7,21.8-21.8,21.8
				C46.7,88.8,36.8,79,36.8,67z M45.4,67c0,7.2,5.9,13.2,13.2,13.2c7.3,0,13.2-6,13.2-13.2c0-7.3-5.9-13.2-13.2-13.2
				C51.3,53.8,45.4,59.7,45.4,67z"/>
			<path class="st0" d="M109.9,49.5c0,2.4-1.9,4.3-4.3,4.3h-7.6v30.7c0,2.4-1.9,4.3-4.3,4.3c-2.3,0-4.3-1.9-4.3-4.3V53.8h-4.8
				c-2.3,0-4.3-1.9-4.3-4.3c0-2.3,1.9-4.3,4.3-4.3h4.8c-0.1-6.2,2.2-11.8,6.3-16c2.3-2.3,5-4.1,8.2-5.1c2.2-0.9,4.7,0.3,5.5,2.6
				c0.8,2.2-0.3,4.7-2.6,5.5c-1.8,0.6-3.5,1.7-5,3.1c-2.6,2.6-3.8,6-3.8,9.9h7.6C108,45.2,109.9,47.1,109.9,49.5z"/>
			<path class="st0" d="M144.5,49.5c0,2.3-1.9,4.3-4.3,4.3H134v30.7c0,2.3-1.9,4.3-4.3,4.3c-2.3,0-4.3-2-4.3-4.3V53.9h-6.3
				c-2.3,0-4.3-2-4.3-4.3c0-2.3,1.9-4.3,4.3-4.3h6.3V27.9c0-2.3,1.9-4.3,4.3-4.3c2.4,0,4.3,1.9,4.3,4.3v17.4h6.2
				C142.6,45.3,144.5,47.2,144.5,49.5z"/>
			<path class="st1" d="M187.4,67.4v17c0,2.5-1.8,4.3-4.3,4.3c-1.7,0-4.2-1.8-4.2-4.3c-3.7,3.1-7.9,4.3-12.9,4.3
				c-12.2,0-22-9.1-22-21.4s9.7-22,22-22C178.3,45.4,187.4,55.1,187.4,67.4z M178.9,67.4c0-7.3-5.6-13.5-12.9-13.5
				c-7.3,0-13.5,6.2-13.5,13.5c0,7.3,6.2,12.9,13.5,12.9C173.4,80.2,178.9,74.6,178.9,67.4z"/>
			<path class="st1" d="M192.6,67c0-12.1,9.8-21.8,21.8-21.8c12.1,0,21.8,9.7,21.8,21.8c0,12-9.7,21.8-21.8,21.8
				C202.5,88.8,192.6,79,192.6,67z M201.2,67c0,7.2,5.9,13.2,13.2,13.2c7.3,0,13.2-6,13.2-13.2c0-7.3-5.9-13.2-13.2-13.2
				C207.2,53.8,201.2,59.7,201.2,67z"/>
			<path class="st1" d="M275.2,81.9c1.5,1.9,1.1,4.6-0.8,6c-0.8,0.6-1.7,1-2.6,1c-1.3,0-2.5-0.6-3.4-1.7L258.2,74l-10.2,13.1
				c-0.9,1-2.1,1.7-3.4,1.7c-1,0-1.8-0.3-2.6-1c-1.9-1.4-2.3-4.1-0.8-6L252.7,67l-11.5-14.9c-1.5-1.9-1.1-4.6,0.8-6.1
				c1.8-1.5,4.5-1.1,6,0.8L258.2,60l10.2-13.1c1.5-1.9,4.2-2.3,6-0.8c1.9,1.5,2.3,4.2,0.8,6.1L263.7,67L275.2,81.9z"/>
		</g>
	</g>
	<g>
		<path d="M207.9,6.9c1.5-0.3,3.9-0.6,6.4-0.6c3.5,0,5.8,0.6,7.4,2c1.4,1,2.3,2.7,2.3,4.8c0,2.6-1.7,4.9-4.6,6v0.1
			c2.6,0.6,5.6,2.8,5.6,6.8c0,2.3-0.9,4.1-2.3,5.4c-1.9,1.7-5,2.5-9.4,2.5c-2.4,0-4.3-0.2-5.4-0.3V6.9z M211.4,18h3.2
			c3.7,0,5.9-1.9,5.9-4.5c0-3.2-2.4-4.4-6-4.4c-1.6,0-2.5,0.1-3.1,0.2V18z M211.4,31c0.7,0.1,1.7,0.2,2.9,0.2c3.6,0,7-1.3,7-5.3
			c0-3.7-3.2-5.2-7-5.2h-2.9V31z"/>
		<path d="M229.6,5.1h3.5v28.6h-3.5V5.1z"/>
		<path d="M256.7,23.8c0,7.2-5,10.3-9.7,10.3c-5.3,0-9.3-3.9-9.3-10c0-6.5,4.3-10.3,9.7-10.3C253,13.8,256.7,17.8,256.7,23.8z
			 M241.3,24c0,4.3,2.5,7.5,5.9,7.5c3.4,0,5.9-3.2,5.9-7.6c0-3.3-1.7-7.5-5.8-7.5C243.1,16.4,241.3,20.3,241.3,24z"/>
		<path d="M278,14.2c-0.1,1.4-0.2,3-0.2,5.4v11.3c0,4.5-0.9,7.2-2.8,8.9c-1.9,1.8-4.6,2.3-7.1,2.3c-2.3,0-4.9-0.6-6.5-1.6l0.9-2.7
			c1.3,0.8,3.3,1.5,5.7,1.5c3.6,0,6.3-1.9,6.3-6.8v-2.2h-0.1c-1.1,1.8-3.2,3.3-6.2,3.3c-4.8,0-8.3-4.1-8.3-9.5
			c0-6.6,4.3-10.3,8.8-10.3c3.4,0,5.2,1.8,6.1,3.4h0.1l0.2-2.9H278z M274.3,21.9c0-0.6,0-1.1-0.2-1.6c-0.6-2.1-2.4-3.7-5-3.7
			c-3.4,0-5.8,2.9-5.8,7.4c0,3.8,1.9,7,5.8,7c2.2,0,4.1-1.4,4.9-3.6c0.2-0.6,0.3-1.3,0.3-1.9V21.9z"/>
	</g>
</g>
<g id="Layer_2">
</g>
<g id="Layer_3">
</g>
</svg>
